<svg id="Layer_1" data-name="Layer 1" xmlns="http://www.w3.org/2000/svg" viewBox="0 0 512 512"><defs><style>.cls-1{font-size:106.68px;}.cls-1,.cls-2,.cls-4{fill:#f15a29;}.cls-1,.cls-2{font-family:MaiandraGD-Regular, Maiandra GD;}.cls-2{font-size:58.77px;}.cls-3{fill:#254268;}</style></defs><text class="cls-1" transform="translate(103.21 428.47)">HEZEL</text><text class="cls-2" transform="translate(106.84 476.52)">Investments</text><polygon class="cls-3" points="103.21 263.77 252.56 114.42 252.56 98.63 103.21 247.98 103.21 263.77"/><polygon class="cls-3" points="103.21 339.43 252.56 339.43 252.56 149.68 103.21 299.02 103.21 339.43"/><polygon class="cls-3" points="103.21 289.29 252.56 139.94 252.56 124.15 103.21 273.5 103.21 289.29"/><polygon class="cls-3" points="103.21 238.24 252.56 88.89 252.56 73.11 103.21 222.46 103.21 238.24"/><polygon class="cls-3" points="103.21 212.72 252.56 63.37 252.56 47.58 103.21 196.93 103.21 212.72"/><polygon class="cls-3" points="103.21 171.41 103.21 187.2 252.56 37.85 252.56 22.06 103.21 171.41"/><polygon class="cls-4" points="408.79 170.97 259.44 21.62 259.44 339.43 286.49 339.43 286.49 84.42 326.21 124.14 326.21 339.43 345.45 339.43 345.45 214.92 385.17 254.65 385.17 339.43 408.79 339.43 408.79 170.97"/></svg>